<?xml version="1.0" standalone="no"?>
<!DOCTYPE svg PUBLIC "-//W3C//DTD SVG 20010904//EN"
 "http://www.w3.org/TR/2001/REC-SVG-20010904/DTD/svg10.dtd">
<svg version="1.0" xmlns="http://www.w3.org/2000/svg"
 width="1856.000000pt" height="1856.000000pt" viewBox="0 0 1856.000000 1856.000000"
 preserveAspectRatio="xMidYMid meet">
<metadata>
Created by potrace 1.11, written by Peter Selinger 2001-2013
</metadata>
<g transform="translate(0.000000,1856.000000) scale(0.100000,-0.100000)"
fill="#000000" stroke="none">
<path d="M8815 17209 c-1760 -106 -3373 -756 -4720 -1902 -272 -231 -625 -586
-876 -882 -821 -964 -1408 -2129 -1687 -3345 -91 -395 -144 -738 -184 -1200
-18 -196 -17 -1006 0 -1200 99 -1107 352 -2021 817 -2952 897 -1793 2453
-3189 4335 -3891 1700 -634 3615 -659 5332 -71 967 331 1903 871 2641 1522 34
30 78 68 97 85 728 643 1433 1580 1849 2460 110 232 131 278 209 475 291 723
469 1453 541 2212 47 491 45 1077 -5 1570 -307 3039 -2346 5638 -5234 6672
-655 234 -1314 373 -2080 439 -167 14 -848 20 -1035 8z m885 -549 c1058 -66
2013 -324 2935 -794 1133 -578 2087 -1427 2796 -2486 529 -791 914 -1718 1094
-2630 109 -551 140 -879 140 -1470 0 -455 -11 -625 -61 -999 -263 -1958 -1319
-3745 -2914 -4931 -568 -422 -1194 -762 -1853 -1004 -1513 -558 -3178 -604
-4725 -131 -1437 439 -2715 1319 -3653 2515 -835 1065 -1364 2351 -1518 3690
-37 324 -46 488 -45 870 0 364 7 502 40 805 184 1673 930 3224 2124 4415 1285
1281 2963 2036 4775 2149 192 12 676 12 865 1z"/>
<path d="M9167 15785 c-1 -1 -85 -5 -187 -9 -102 -3 -196 -8 -210 -10 -14 -2
-61 -7 -105 -10 -196 -15 -533 -68 -780 -122 -1766 -386 -3303 -1506 -4225
-3079 -106 -181 -311 -596 -396 -800 -91 -220 -223 -619 -284 -860 -75 -296
-143 -672 -165 -920 -4 -38 -8 -81 -10 -94 -20 -121 -28 -807 -12 -1046 15
-244 57 -563 108 -820 314 -1583 1214 -3001 2519 -3967 911 -674 1995 -1100
3120 -1228 263 -30 374 -35 730 -35 366 0 498 6 750 35 857 98 1654 353 2415
773 902 497 1705 1241 2278 2112 839 1276 1198 2774 1031 4305 -173 1580 -939
3059 -2138 4127 -732 652 -1598 1130 -2535 1398 -468 134 -963 216 -1441 240
-123 7 -458 13 -463 10z m191 -204 c9 -5 12 -24 10 -52 l-3 -44 -102 -3 -103
-3 0 49 c0 27 3 52 7 55 9 10 176 8 191 -2z m-442 -9 c15 -10 26 -74 15 -90
-5 -9 -38 -14 -107 -15 l-99 -2 -3 47 c-4 54 -1 55 103 61 33 2 65 4 70 5 6 1
15 -2 21 -6z m877 -14 c17 -9 23 -51 11 -82 -7 -17 -92 -21 -169 -8 -36 7 -40
11 -43 39 -6 62 7 70 100 65 46 -2 91 -9 101 -14z m-1305 -30 c7 -7 12 -29 12
-50 0 -48 -18 -56 -127 -60 l-77 -3 -8 39 c-5 23 -5 43 1 49 5 5 46 14 92 22
46 7 86 13 90 14 3 0 10 -4 17 -11z m1720 -13 c32 -6 33 -7 30 -53 l-3 -47
-75 2 c-41 2 -88 7 -105 11 -28 8 -30 12 -27 48 2 21 8 44 13 50 8 10 66 6
167 -11z m-2142 -84 c3 -14 7 -31 9 -37 7 -23 -13 -34 -88 -50 -105 -21 -119
-18 -129 30 -5 22 -5 43 -1 47 11 11 176 47 191 41 7 -2 15 -16 18 -31z m2522
14 c40 -8 76 -15 79 -15 7 0 -3 -89 -11 -97 -7 -8 -147 14 -183 28 -21 8 -23
13 -17 46 8 47 22 65 43 58 9 -2 49 -11 89 -20z m505 -135 c11 -10 -10 -87
-25 -92 -16 -6 -181 42 -189 55 -8 11 5 63 21 82 8 10 28 7 98 -12 48 -14 91
-29 95 -33z m-3450 7 c5 -22 6 -42 1 -47 -5 -5 -47 -20 -94 -34 -97 -28 -109
-24 -113 39 l-2 39 70 22 c39 13 83 22 100 21 25 -2 31 -7 38 -40z m-417 -123
c8 -18 12 -39 9 -46 -6 -16 -180 -80 -190 -70 -13 14 -34 73 -29 85 5 14 175
77 188 69 4 -2 14 -19 22 -38z m4278 -24 c11 -11 -2 -66 -20 -84 -11 -12 -26
-10 -96 16 -46 17 -87 34 -93 39 -10 10 11 80 28 90 10 7 165 -46 181 -61z
m-4684 -141 c8 -24 10 -43 4 -48 -15 -13 -153 -71 -169 -71 -17 0 -48 54 -43
77 3 18 164 94 183 87 7 -3 18 -23 25 -45z m5002 15 c46 -20 87 -40 92 -45 14
-13 -24 -89 -44 -89 -21 0 -167 66 -175 80 -5 9 30 90 40 90 2 0 41 -16 87
-36z m-5399 -192 c10 -18 17 -38 14 -46 -3 -7 -42 -32 -87 -55 -88 -46 -97
-46 -120 10 -10 23 -10 33 -1 42 19 19 145 85 160 83 8 0 23 -16 34 -34z
m5799 -4 c44 -22 82 -47 85 -54 5 -15 -33 -84 -47 -84 -18 0 -162 83 -167 97
-6 16 27 83 40 83 5 0 45 -19 89 -42z m-6162 -244 c0 -6 -7 -18 -17 -25 -29
-25 -138 -89 -150 -89 -14 0 -56 66 -51 80 2 5 39 32 83 60 l80 50 28 -32 c15
-18 27 -37 27 -44z m6536 28 c99 -61 98 -58 72 -103 -12 -22 -27 -39 -34 -39
-22 0 -164 94 -164 108 0 24 34 72 50 72 8 0 42 -17 76 -38z m-6914 -240 l22
-35 -30 -24 c-16 -12 -53 -40 -83 -60 l-54 -37 -29 34 c-16 19 -27 40 -26 47
5 18 151 121 165 116 7 -3 22 -21 35 -41z m7284 -9 c87 -61 88 -63 58 -107
-17 -24 -31 -35 -40 -32 -27 11 -146 99 -151 113 -7 18 45 85 60 76 7 -3 40
-26 73 -50z m-7642 -242 c15 -16 26 -36 24 -44 -3 -15 -131 -127 -145 -127
-13 0 -63 54 -63 68 0 12 135 132 148 132 5 0 21 -13 36 -29z m7994 -32 c40
-34 72 -65 72 -69 0 -13 -51 -70 -62 -70 -10 0 -143 105 -153 120 -6 10 44 80
58 80 7 0 45 -27 85 -61z m-8315 -261 c15 -17 23 -36 19 -43 -4 -6 -37 -40
-73 -74 l-67 -61 -31 26 c-17 14 -31 34 -31 43 0 21 122 141 143 141 8 0 26
-14 40 -32z m8640 -32 c37 -34 67 -67 67 -72 0 -11 -56 -74 -65 -74 -11 0
-145 133 -145 144 0 14 51 66 64 66 6 -1 41 -29 79 -64z m-8951 -273 c15 -15
28 -31 28 -36 0 -13 -120 -147 -131 -147 -18 0 -69 44 -69 59 0 19 117 151
133 151 6 0 24 -12 39 -27z m9256 -42 c34 -38 62 -73 62 -77 0 -13 -53 -64
-66 -64 -14 0 -134 128 -134 143 0 15 51 67 65 67 6 0 39 -31 73 -69z m-9540
-291 c21 -19 30 -35 26 -42 -20 -33 -116 -148 -124 -148 -13 0 -70 50 -70 62
0 11 97 137 115 150 15 11 18 10 53 -22z m9822 -46 c33 -41 60 -79 60 -84 0
-16 -67 -61 -81 -55 -13 6 -110 127 -118 148 -4 10 56 66 71 67 4 0 35 -34 68
-76z m-10058 -322 c8 -9 -3 -33 -43 -92 -30 -44 -60 -79 -67 -80 -19 0 -72 39
-72 53 0 14 88 149 104 159 11 7 60 -18 78 -40z m10318 -37 c28 -41 50 -78 50
-84 0 -13 -54 -51 -73 -51 -19 0 -121 155 -112 170 11 18 67 50 77 44 5 -3 31
-39 58 -79z m-10586 -306 c20 -12 36 -26 36 -31 0 -20 -82 -160 -97 -165 -19
-8 -83 26 -83 43 0 15 80 156 94 166 14 10 10 11 50 -13z m10818 -65 c27 -43
48 -82 48 -87 0 -10 -62 -47 -80 -47 -16 0 -100 138 -100 164 0 16 59 57 75
53 5 -2 31 -39 57 -83z m-11022 -319 c17 -9 30 -22 30 -30 0 -22 -79 -175 -90
-175 -21 0 -80 35 -80 47 0 28 80 173 96 173 8 0 28 -7 44 -15z m11231 -71
c43 -94 42 -102 -12 -124 -39 -17 -47 -8 -93 93 l-36 77 33 20 c55 34 64 28
108 -66z m179 -403 c16 -41 30 -80 30 -87 0 -15 -68 -47 -85 -40 -13 5 -75
152 -75 177 0 22 70 50 87 35 7 -6 26 -44 43 -85z m-11572 65 c13 -12 10 -25
-19 -101 -19 -48 -39 -89 -45 -92 -21 -8 -84 25 -84 44 0 10 14 53 31 97 l32
78 35 -6 c20 -3 42 -12 50 -20z m-151 -409 c11 -11 9 -26 -13 -92 -34 -103
-41 -111 -88 -95 -20 6 -38 16 -42 21 -5 8 39 157 54 183 6 12 73 0 89 -17z
m11870 -64 c17 -49 28 -94 26 -100 -6 -16 -83 -37 -93 -26 -9 10 -60 163 -60
180 0 13 43 31 77 32 18 1 25 -12 50 -86z m-11994 -352 c11 -11 -29 -187 -44
-197 -5 -2 -27 0 -49 6 -31 8 -40 15 -40 33 0 37 38 170 51 177 13 9 67 -4 82
-19z m12116 -66 c12 -46 21 -91 21 -99 0 -22 -79 -42 -95 -24 -12 13 -45 143
-45 178 0 12 12 21 38 27 20 5 42 8 48 6 7 -3 21 -42 33 -88z m-6955 -109
c118 -36 168 -102 168 -220 1 -84 -14 -142 -52 -213 l-28 -53 72 0 c97 0 171
20 295 81 137 68 144 62 92 -73 -42 -111 -56 -131 -128 -182 -98 -70 -250
-118 -376 -119 -75 0 -78 -1 -83 -26 -14 -61 -33 -110 -149 -371 -68 -151
-225 -504 -350 -785 -125 -280 -248 -544 -273 -585 -121 -196 -334 -340 -607
-411 -137 -36 -244 -50 -421 -56 -606 -21 -895 157 -794 489 30 100 860 1962
913 2048 91 149 204 257 342 325 171 84 302 115 520 122 179 6 277 -7 387 -51
l63 -26 30 29 c39 37 81 58 152 75 77 19 169 19 227 2z m-2370 -55 c55 -12
124 -33 153 -47 112 -53 155 -156 122 -292 -14 -58 -1139 -2585 -1216 -2732
-123 -235 -260 -406 -399 -499 -132 -88 -258 -121 -466 -121 -252 1 -395 58
-460 184 -102 197 220 896 594 1291 175 185 362 315 555 385 l61 22 316 722
c174 397 316 732 316 745 0 72 -41 84 -305 87 -115 1 -220 2 -232 3 -12 1 -35
12 -51 26 -55 46 -51 139 9 189 65 55 159 65 564 61 305 -2 350 -5 439 -24z
m6704 19 c203 -26 283 -98 281 -255 -2 -125 28 -104 -349 -242 -184 -66 -336
-120 -338 -118 -2 2 10 27 27 57 39 68 71 161 71 203 0 41 -32 56 -115 56 -76
0 -149 -43 -228 -137 -137 -161 -217 -412 -183 -575 22 -103 104 -192 234
-251 72 -33 71 -28 18 -136 l-31 -64 -85 -33 c-102 -39 -238 -106 -300 -148
-304 -204 -552 -569 -576 -846 -8 -90 20 -145 90 -180 42 -21 62 -24 150 -23
222 1 521 97 737 237 168 108 237 182 304 321 177 373 521 675 873 764 l53 14
-58 27 c-124 57 -195 136 -234 259 -23 73 -27 216 -9 310 75 398 422 678 938
755 112 17 421 20 527 5 219 -31 296 -111 281 -289 -3 -41 -9 -78 -14 -82 -6
-6 -668 -249 -677 -249 -1 0 13 29 31 64 40 74 74 168 74 202 0 35 -38 54
-107 55 -102 2 -198 -66 -289 -203 -122 -183 -169 -392 -123 -548 20 -67 116
-160 213 -206 42 -20 76 -38 76 -39 0 -2 -17 -41 -39 -87 l-38 -83 -69 -23
c-112 -38 -283 -127 -376 -197 -107 -81 -262 -244 -334 -351 -153 -230 -224
-492 -157 -582 48 -64 143 -87 296 -71 363 37 801 269 944 501 20 32 39 58 42
58 4 0 33 -34 65 -76 l59 -77 -24 -44 c-141 -259 -622 -553 -1029 -630 -131
-25 -529 -25 -640 -1 -111 24 -182 54 -249 103 -68 50 -108 119 -118 203 -3
29 -7 52 -9 52 -2 0 -34 -22 -71 -49 -164 -119 -417 -236 -613 -285 -140 -34
-247 -46 -415 -46 -244 0 -382 23 -501 81 -56 28 -154 111 -154 131 0 16 -21
7 -87 -38 -176 -121 -347 -174 -556 -174 -195 0 -299 44 -640 272 -81 55 -154
101 -160 104 -7 2 -38 -27 -70 -65 -63 -77 -159 -154 -257 -205 -225 -118
-554 -140 -721 -50 -127 69 -210 219 -209 378 0 61 26 170 54 232 54 117 197
216 358 249 115 23 314 18 473 -10 29 -6 33 -1 166 192 225 327 397 605 763
1236 95 164 170 304 173 324 11 65 26 63 -527 63 -442 0 -498 2 -519 16 -28
20 -51 72 -51 115 0 41 36 104 67 118 17 8 288 11 919 11 823 0 898 -1 925
-17 37 -22 56 -67 42 -103 -20 -54 -659 -1085 -935 -1510 -88 -135 -215 -323
-281 -418 -67 -94 -128 -180 -135 -191 -11 -16 -6 -22 50 -55 35 -20 139 -93
232 -161 312 -231 418 -277 586 -254 75 10 225 80 278 128 25 23 32 38 32 66
0 55 28 178 61 270 146 402 479 731 872 859 l99 33 -34 13 c-58 22 -152 90
-187 136 -18 24 -45 72 -60 106 -23 57 -26 75 -26 193 0 137 12 200 58 315 49
121 178 277 302 366 151 108 396 197 630 227 67 9 406 6 483 -3z m-9592 -211
c8 -7 7 -35 -5 -102 l-16 -92 -35 -3 c-19 -2 -43 3 -53 10 -17 13 -18 18 -3
101 8 48 18 92 21 98 7 11 73 2 91 -12z m12282 9 c5 -7 17 -51 26 -98 15 -79
15 -86 -1 -97 -20 -15 -79 -17 -88 -3 -5 8 -35 163 -35 182 0 7 51 25 76 27 6
1 16 -5 22 -11z m-12342 -441 c5 -15 -13 -187 -21 -195 -9 -9 -77 -2 -90 8
-10 9 -3 151 10 188 6 17 94 16 101 -1z m12419 -9 c3 -13 6 -59 8 -103 l2 -79
-38 -7 c-26 -4 -43 -2 -52 7 -14 14 -31 176 -20 194 3 5 26 10 50 10 38 0 45
-3 50 -22z m-12471 -414 c13 -5 16 -23 16 -94 0 -111 -4 -120 -45 -120 -62 0
-65 4 -65 90 0 103 10 130 49 130 16 0 36 -3 45 -6z m12509 -92 c10 -111 4
-124 -57 -120 l-41 3 -7 94 c-9 112 -3 123 56 119 l41 -3 8 -93z m-12495 -449
l3 -103 -25 0 c-13 0 -31 -3 -39 -6 -30 -11 -44 22 -46 110 -1 48 1 91 4 97 4
5 28 9 53 7 l47 -3 3 -102z m12496 92 c9 -26 -6 -194 -18 -198 -6 -3 -29 -2
-51 2 l-40 7 4 94 c2 52 5 98 8 103 9 14 91 8 97 -8z m-12479 -425 c3 -5 11
-51 16 -101 12 -105 9 -111 -56 -107 l-40 3 -11 93 c-5 51 -8 96 -5 101 6 9
36 17 73 20 9 0 20 -3 23 -9z m12449 -7 c8 -5 0 -149 -10 -185 -4 -13 -16 -18
-42 -18 -62 0 -65 6 -57 106 4 49 12 95 18 102 10 13 67 9 91 -5z m-12397
-425 c16 -20 40 -175 31 -193 -6 -10 -24 -15 -53 -15 l-43 0 -17 95 c-10 53
-15 98 -12 102 5 4 51 18 78 22 4 1 11 -5 16 -11z m12340 -12 c10 -9 9 -29 -3
-96 -9 -47 -20 -90 -25 -96 -11 -13 -75 -6 -88 10 -13 16 15 187 32 198 14 9
68 -1 84 -16z m-12228 -504 c27 -104 25 -111 -37 -119 -45 -6 -44 -8 -73 123
-14 61 -9 81 23 87 58 12 62 7 87 -91z m12120 87 c37 -13 37 -15 9 -125 l-21
-86 -40 5 c-58 8 -63 17 -49 85 29 141 33 145 101 121z m-12000 -501 c35 -105
32 -116 -33 -121 l-39 -2 -28 85 c-16 46 -29 88 -29 93 0 10 58 36 82 37 12 0
25 -25 47 -92z m11887 77 c21 -9 34 -20 32 -27 -3 -7 -18 -51 -33 -97 l-27
-83 -36 6 c-64 10 -68 23 -37 118 15 45 30 86 32 91 6 11 30 8 69 -8z m-11739
-480 c17 -44 32 -86 33 -92 0 -15 -51 -43 -78 -43 -14 0 -27 22 -55 91 l-36
90 32 20 c53 32 67 23 104 -66z m11588 71 c19 -8 35 -21 35 -28 0 -26 -63
-170 -77 -175 -8 -3 -31 2 -50 11 -31 15 -35 20 -30 44 9 43 65 162 77 162 6
0 26 -7 45 -14z m-11415 -466 c22 -44 40 -86 40 -93 0 -12 -59 -47 -80 -47
-11 0 -90 153 -90 174 0 17 45 45 72 46 12 0 30 -25 58 -80z m11245 63 c19 -9
35 -20 35 -25 0 -24 -86 -178 -100 -178 -8 0 -30 9 -48 20 -32 19 -32 21 -18
52 34 83 71 148 83 148 7 0 28 -8 48 -17z m-11035 -455 c22 -38 40 -75 40 -82
0 -7 -17 -22 -39 -34 -36 -21 -39 -21 -53 -4 -21 23 -88 146 -88 160 0 18 73
52 87 40 7 -5 31 -41 53 -80z m10819 78 c56 -29 56 -37 5 -125 -26 -45 -53
-81 -61 -81 -26 0 -73 30 -73 48 0 17 86 172 96 172 3 0 17 -6 33 -14z m-185
-409 c11 -17 -87 -167 -110 -167 -20 0 -74 38 -74 51 0 10 71 121 98 152 14
16 17 16 46 -2 17 -11 35 -26 40 -34z m-10405 -35 c28 -43 51 -81 51 -84 0
-10 -66 -48 -81 -48 -16 0 -109 138 -109 161 0 16 47 48 71 49 10 0 38 -33 68
-78z m252 -349 l61 -77 -36 -33 c-20 -19 -41 -31 -46 -28 -17 11 -120 143
-120 155 0 14 51 59 67 60 7 0 40 -35 74 -77z m9879 51 c17 -15 29 -33 26 -40
-11 -29 -110 -144 -124 -144 -18 0 -72 38 -72 51 0 17 113 159 126 159 7 0 27
-12 44 -26z m-9601 -381 c34 -37 61 -73 61 -80 0 -7 -16 -24 -36 -40 l-36 -27
-64 69 c-35 39 -63 76 -64 84 0 21 40 61 61 61 10 0 45 -30 78 -67z m9324 42
c15 -13 27 -29 27 -34 0 -11 -116 -144 -130 -149 -12 -4 -70 48 -70 64 0 19
112 143 130 143 8 0 27 -11 43 -24z m-9020 -355 l71 -70 -34 -35 c-19 -19 -37
-34 -41 -33 -22 9 -139 123 -139 136 0 17 48 72 63 72 5 0 41 -31 80 -70z
m8721 39 c14 -17 26 -34 26 -38 0 -3 -32 -38 -70 -76 -76 -76 -83 -77 -124
-22 l-20 27 69 70 c38 39 75 70 81 70 7 0 24 -14 38 -31z m-8403 -326 c38 -31
69 -64 69 -73 0 -9 -13 -29 -30 -45 -33 -32 -24 -35 -122 48 -32 27 -58 53
-58 58 0 17 43 69 58 69 7 0 45 -26 83 -57z m8083 26 c14 -17 26 -34 26 -38 0
-5 -34 -36 -76 -71 l-75 -62 -26 23 c-50 48 -49 53 29 118 39 34 77 61 84 61
7 0 24 -14 38 -31z m-7739 -294 c41 -31 75 -59 75 -62 0 -15 -46 -73 -58 -73
-15 0 -132 81 -152 105 -10 12 -8 21 11 50 13 19 30 35 37 35 7 0 46 -25 87
-55z m7399 22 c15 -19 26 -37 26 -40 0 -11 -148 -117 -163 -117 -18 0 -60 58
-53 75 6 17 136 114 153 115 7 0 23 -15 37 -33z m-7040 -264 c42 -27 76 -55
76 -63 0 -8 -11 -28 -24 -45 -24 -30 -24 -30 -57 -13 -48 24 -132 81 -136 93
-5 16 35 75 51 75 8 0 49 -21 90 -47z m6685 11 c12 -19 21 -37 21 -40 0 -9
-155 -104 -170 -104 -17 0 -50 49 -50 73 0 17 136 106 162 107 9 0 25 -16 37
-36z m-6313 -225 c42 -23 78 -48 81 -55 5 -14 -33 -84 -45 -84 -9 0 -155 79
-166 90 -13 12 23 90 41 90 8 0 48 -19 89 -41z m5934 9 c11 -18 20 -38 20 -45
0 -6 -39 -33 -87 -59 l-86 -47 -19 23 c-18 22 -34 68 -27 74 15 13 157 86 167
86 7 0 21 -15 32 -32z m-5527 -207 c42 -19 67 -36 67 -46 0 -26 -29 -75 -45
-75 -8 0 -49 15 -92 34 -87 38 -95 52 -63 103 22 37 15 37 133 -16z m5141 3
c9 -20 14 -40 10 -45 -8 -14 -152 -79 -174 -79 -18 0 -53 67 -43 84 8 13 167
84 179 79 6 -2 18 -20 28 -39z m-4749 -160 c42 -15 79 -32 81 -39 7 -18 -25
-85 -41 -85 -19 0 -157 50 -173 63 -22 17 17 103 43 93 8 -3 48 -17 90 -32z
m4340 5 c28 -54 18 -68 -69 -100 -44 -16 -86 -29 -93 -29 -16 0 -47 66 -39 85
4 10 153 73 178 74 4 1 15 -13 23 -30z m-3922 -140 l79 -23 -6 -39 c-11 -68
-14 -69 -132 -33 l-79 24 2 37 c3 44 19 67 42 61 9 -3 51 -15 94 -27z m3515
-13 c8 -27 9 -42 2 -51 -13 -16 -165 -59 -183 -52 -16 6 -37 71 -28 86 8 13
158 60 181 57 8 0 21 -19 28 -40z m-3094 -90 c38 -8 72 -19 76 -26 13 -21 -10
-90 -30 -90 -37 0 -175 33 -182 43 -8 13 1 67 15 84 5 7 19 11 31 8 11 -3 52
-11 90 -19z m2667 -3 c5 -15 9 -38 7 -52 -3 -22 -11 -28 -53 -39 -27 -7 -72
-13 -99 -15 l-50 -2 -8 39 c-5 23 -5 43 1 49 8 8 142 42 179 46 7 0 17 -11 23
-26z m-2266 -68 c109 -13 106 -11 103 -63 -3 -46 -4 -47 -38 -50 -19 -1 -66 3
-105 11 l-70 13 3 44 c4 46 16 62 42 56 8 -3 38 -7 65 -11z m1834 1 c7 -8 11
-31 9 -52 -4 -45 -22 -52 -132 -56 l-70 -3 -8 39 c-5 23 -5 43 1 49 5 5 46 14
92 22 46 7 87 13 90 14 4 0 12 -5 18 -13z m-1299 -62 c7 -7 8 -28 4 -52 l-7
-42 -71 1 c-116 2 -130 8 -134 52 -2 21 1 44 7 50 12 15 186 6 201 -9z m876
-8 c17 -70 -3 -83 -132 -85 -78 -1 -84 3 -84 60 0 39 23 48 127 48 79 1 83 0
89 -23z m-445 -3 c6 -6 9 -28 7 -49 l-3 -39 -102 -3 c-93 -2 -103 -1 -104 15
-3 45 1 77 10 83 17 10 181 4 192 -7z"/>
<path d="M8210 10473 c-51 -19 -68 -96 -33 -150 15 -23 67 -53 92 -53 15 0 31
67 31 126 0 70 -33 98 -90 77z"/>
<path d="M7515 10352 c-90 -42 -89 -40 -552 -1085 -472 -1064 -461 -1032 -408
-1095 33 -40 95 -56 194 -50 61 4 88 10 123 31 53 31 119 100 146 154 45 87
738 1643 759 1703 31 90 31 199 0 255 -48 85 -175 127 -262 87z"/>
<path d="M4779 8445 c-64 -46 -158 -158 -245 -290 -165 -252 -384 -715 -384
-814 0 -60 72 -65 135 -10 52 46 157 238 312 572 78 168 243 554 243 567 0 16
-13 11 -61 -25z"/>
<path d="M8335 8327 c-131 -35 -194 -112 -180 -224 8 -65 28 -91 80 -103 104
-24 224 65 347 254 31 49 36 61 24 68 -27 15 -218 18 -271 5z"/>
</g>
</svg>
